<svg id="svg" version="1.1" xmlns="http://www.w3.org/2000/svg" xmlns:xlink="http://www.w3.org/1999/xlink" width="400" height="400" viewBox="0 0 400 400"><g id="svgg"><path id="path0" d="M278.014 2.300 C 277.770 3.565,277.133 6.490,276.597 8.800 C 276.060 11.110,275.162 15.160,274.599 17.800 C 274.037 20.440,273.143 24.490,272.612 26.800 C 272.081 29.110,271.425 32.170,271.154 33.600 C 270.309 38.060,269.189 38.590,249.200 44.006 C 245.790 44.929,242.421 46.037,241.713 46.467 C 238.997 48.118,231.578 57.541,225.390 67.200 C 219.499 76.396,219.740 76.115,214.000 80.473 C 199.916 91.165,190.963 95.548,180.657 96.794 C 179.086 96.984,176.282 97.355,174.428 97.619 C 171.503 98.034,170.627 98.005,167.828 97.400 C 163.098 96.377,144.007 91.912,141.896 91.336 C 140.951 91.078,140.284 89.650,139.256 85.684 C 136.722 75.903,130.740 70.929,121.932 71.276 C 119.420 71.376,118.000 70.527,118.000 68.927 C 118.000 63.349,107.408 58.867,99.384 61.048 C 95.107 62.211,95.399 62.255,92.701 60.037 C 86.799 55.185,76.323 55.251,71.403 60.170 C 69.750 61.823,69.367 61.883,67.303 60.807 C 60.827 57.432,53.661 59.619,50.292 66.000 C 48.662 69.088,47.913 69.322,43.664 68.073 C 42.199 67.642,40.370 67.182,39.600 67.050 C 38.830 66.918,36.805 66.448,35.100 66.005 C 33.395 65.562,30.605 64.847,28.900 64.416 C 8.444 59.239,2.774 57.849,1.500 57.696 L 0.000 57.516 0.000 59.315 L 0.000 61.114 2.900 61.776 C 8.469 63.048,12.621 64.062,15.400 64.829 C 16.940 65.255,18.599 65.602,19.086 65.601 C 19.573 65.601,20.833 65.893,21.886 66.252 C 22.939 66.611,25.330 67.244,27.200 67.659 C 42.996 71.167,46.657 72.186,47.214 73.226 C 47.511 73.780,47.499 75.519,47.175 79.102 C 46.823 83.000,46.829 86.031,47.204 92.059 C 47.472 96.387,47.584 100.102,47.452 100.316 C 46.763 101.431,46.407 114.312,46.816 123.373 C 47.288 133.830,47.212 134.272,45.035 133.803 C 44.576 133.704,42.220 133.177,39.800 132.633 C 37.380 132.089,32.610 131.088,29.200 130.410 C 25.790 129.731,22.016 128.912,20.813 128.588 C 19.610 128.265,18.211 128.000,17.704 128.000 C 17.198 128.000,15.482 127.652,13.892 127.227 C 10.452 126.308,4.081 124.910,1.700 124.553 L 0.000 124.298 0.000 126.094 L 0.000 127.890 3.100 128.366 C 4.805 128.627,7.100 129.100,8.200 129.417 C 10.371 130.043,16.763 131.388,20.600 132.027 C 27.809 133.228,28.102 133.715,33.586 153.600 C 36.060 162.571,36.463 163.276,41.619 167.651 C 43.768 169.474,51.777 175.200,52.178 175.200 C 52.291 175.200,53.693 176.115,55.292 177.234 C 56.891 178.353,59.911 180.389,62.003 181.759 C 65.970 184.358,68.907 187.476,72.781 193.200 C 79.496 203.122,81.379 206.061,82.422 208.246 C 86.070 215.889,88.732 232.667,87.057 237.450 C 86.758 238.302,86.387 239.900,86.232 241.000 C 86.077 242.100,85.620 244.080,85.216 245.400 C 84.813 246.720,84.285 248.790,84.042 250.000 C 81.493 262.709,81.303 263.161,78.165 263.971 C 70.453 265.962,68.476 266.855,65.593 269.654 C 62.907 272.260,61.542 275.675,61.247 280.532 C 61.013 284.380,60.946 284.622,60.011 285.000 C 51.938 288.264,48.497 295.747,50.997 304.600 C 52.185 308.808,52.182 308.906,50.839 310.103 C 45.292 315.045,44.854 325.843,49.946 332.155 C 51.436 334.002,51.473 334.492,50.321 337.049 C 47.483 343.347,50.094 350.605,56.336 353.767 C 58.861 355.047,58.970 355.421,57.959 359.336 C 57.496 361.131,56.796 364.040,56.405 365.800 C 56.013 367.560,55.394 370.350,55.028 372.000 C 54.662 373.650,54.102 375.900,53.784 377.000 C 53.466 378.100,52.101 383.500,50.750 389.000 C 49.400 394.500,48.210 399.225,48.105 399.500 C 47.970 399.854,48.440 400.000,49.718 400.000 L 51.522 400.000 52.292 397.300 C 52.716 395.815,53.566 392.440,54.182 389.800 C 54.798 387.160,55.625 383.830,56.021 382.400 C 56.417 380.970,56.867 378.900,57.022 377.800 C 57.176 376.700,57.452 375.510,57.636 375.155 C 57.819 374.801,58.334 372.911,58.780 370.955 C 60.480 363.499,62.270 357.159,62.834 356.595 C 63.334 356.095,64.233 356.069,68.923 356.423 C 72.736 356.710,76.584 356.709,81.449 356.419 C 86.548 356.116,89.523 356.125,92.309 356.453 C 94.783 356.745,100.943 356.840,109.659 356.721 C 117.091 356.619,123.389 356.670,123.654 356.833 C 124.017 357.058,123.857 358.386,122.999 362.265 C 122.375 365.089,121.551 368.840,121.169 370.600 C 120.786 372.360,119.993 375.960,119.406 378.600 C 118.818 381.240,118.001 385.110,117.590 387.200 C 116.284 393.835,115.262 398.578,114.984 399.300 C 114.752 399.902,114.962 400.000,116.480 400.000 L 118.246 400.000 118.915 397.300 C 119.283 395.815,120.219 391.810,120.996 388.400 C 123.255 378.478,123.598 377.342,124.621 376.381 C 126.025 375.061,132.406 372.927,143.200 370.167 C 152.887 367.689,154.777 366.522,159.010 360.405 C 160.105 358.824,161.729 356.601,162.620 355.465 C 164.434 353.153,171.555 342.456,172.516 340.600 C 174.238 337.274,189.220 325.949,197.043 322.060 C 203.026 319.086,211.851 316.887,220.600 316.189 C 224.166 315.904,226.246 316.286,241.229 319.974 C 245.755 321.088,249.954 322.000,250.560 322.000 C 252.495 322.000,253.753 323.755,254.574 327.600 C 255.658 332.673,260.103 340.000,262.096 340.000 C 262.305 340.000,262.967 340.349,263.566 340.776 C 264.926 341.744,269.469 342.564,271.936 342.286 C 274.288 342.021,275.017 342.419,275.614 344.297 C 276.759 347.900,279.467 350.879,283.032 352.455 C 285.696 353.634,293.534 353.621,296.219 352.433 C 298.648 351.358,298.533 351.339,300.509 353.148 C 306.168 358.329,317.552 358.484,322.979 353.455 C 324.364 352.171,324.943 352.148,327.225 353.284 C 333.391 356.355,340.255 354.059,343.840 347.725 C 345.687 344.463,345.543 344.473,354.800 346.913 C 356.890 347.464,362.110 348.753,366.400 349.776 C 374.846 351.792,378.989 352.822,383.492 354.027 C 385.082 354.452,386.709 354.800,387.108 354.800 C 387.506 354.800,388.905 355.089,390.216 355.442 C 391.527 355.795,393.950 356.400,395.600 356.785 C 397.250 357.170,398.915 357.620,399.300 357.785 C 399.906 358.045,400.000 357.849,400.000 356.325 C 400.000 354.338,400.144 354.418,393.600 352.800 C 391.950 352.392,386.370 350.990,381.200 349.684 C 370.192 346.903,355.601 343.364,353.600 342.989 C 351.226 342.544,346.613 341.095,346.363 340.716 C 346.233 340.519,346.267 339.467,346.439 338.379 C 347.146 333.903,347.269 328.609,346.818 321.997 C 346.459 316.733,346.453 314.356,346.795 312.400 C 347.555 308.044,347.756 296.181,347.206 288.126 C 346.623 279.596,346.677 279.407,349.500 280.055 C 350.325 280.245,352.260 280.651,353.800 280.958 C 359.654 282.124,371.867 284.727,373.400 285.135 C 374.280 285.369,376.710 285.923,378.800 286.366 C 380.890 286.809,385.750 287.880,389.600 288.745 C 393.450 289.611,397.365 290.443,398.300 290.595 L 400.000 290.870 400.000 289.064 L 400.000 287.258 396.100 286.393 C 393.955 285.917,390.760 285.192,389.000 284.782 C 387.240 284.372,385.080 283.927,384.200 283.793 C 382.186 283.486,376.140 282.220,371.254 281.082 C 368.505 280.442,367.319 279.968,366.795 279.303 C 365.727 277.945,361.758 265.667,359.715 257.400 C 357.716 249.311,354.742 246.616,331.317 231.666 C 326.557 228.627,314.098 211.735,310.913 204.000 C 307.725 196.257,305.528 181.077,306.964 176.714 C 307.275 175.771,307.647 174.190,307.792 173.200 C 307.937 172.210,308.254 170.770,308.496 170.000 C 308.738 169.230,309.274 167.070,309.688 165.200 C 313.084 149.843,312.571 150.833,317.864 149.412 C 328.097 146.665,332.450 141.945,332.737 133.286 C 332.872 129.230,332.895 129.141,333.937 128.740 C 342.322 125.517,345.077 119.807,343.127 109.691 L 342.258 105.181 343.127 104.091 C 346.851 99.417,347.612 97.349,347.569 92.029 C 347.526 86.768,347.058 85.548,343.003 80.133 C 342.730 79.768,342.832 79.009,343.330 77.701 C 346.386 69.680,344.770 64.140,338.282 60.394 C 335.014 58.507,335.029 56.937,338.432 45.138 C 338.854 43.674,339.200 42.118,339.200 41.680 C 339.200 41.242,339.538 39.740,339.952 38.342 C 340.365 36.944,341.183 33.640,341.769 31.000 C 342.355 28.360,343.120 25.120,343.468 23.800 C 343.816 22.480,344.329 20.410,344.608 19.200 C 344.887 17.990,346.035 13.459,347.158 9.131 C 349.663 -0.524,349.646 0.000,347.459 0.000 L 345.719 0.000 345.079 2.500 C 343.923 7.019,342.251 14.132,340.785 20.769 C 340.375 22.622,339.858 24.602,339.636 25.169 C 339.414 25.736,339.062 27.100,338.854 28.200 C 338.497 30.092,336.350 38.832,334.186 47.200 C 333.646 49.290,333.019 51.900,332.792 53.000 C 332.328 55.259,331.627 57.185,331.251 57.230 C 331.113 57.247,323.890 57.223,315.200 57.176 C 283.667 57.008,278.135 57.004,274.467 57.147 C 269.078 57.358,269.243 58.713,272.767 43.200 C 273.692 39.130,274.884 33.730,275.417 31.200 C 276.369 26.676,277.187 22.922,278.771 15.800 C 279.211 13.820,279.765 10.959,280.003 9.442 C 280.240 7.925,280.588 6.395,280.777 6.042 C 280.966 5.689,281.244 4.500,281.394 3.400 C 281.544 2.300,281.754 1.085,281.861 0.700 C 282.024 0.108,281.775 0.000,280.255 0.000 L 278.457 0.000 278.014 2.300 M268.793 43.100 C 268.781 44.200,267.672 50.208,267.005 52.782 C 266.672 54.065,266.400 55.482,266.400 55.929 C 266.400 57.509,265.460 57.849,259.137 58.556 C 252.324 59.319,250.950 59.697,250.562 60.918 C 250.198 62.068,251.776 63.343,253.141 63.000 C 253.686 62.864,257.118 62.491,260.766 62.173 C 264.415 61.854,269.110 61.414,271.200 61.193 C 278.263 60.449,294.583 60.242,299.400 60.836 C 304.182 61.425,304.839 61.432,316.400 61.005 C 332.424 60.413,340.339 63.086,341.006 69.317 C 341.834 77.046,338.799 80.376,329.800 81.612 C 327.291 81.957,324.770 82.193,308.031 83.655 C 296.892 84.628,285.010 84.331,279.275 82.935 C 275.928 82.121,273.910 83.532,275.900 85.296 C 278.260 87.388,300.574 88.538,309.258 87.016 C 311.160 86.683,316.110 86.237,320.258 86.026 C 328.264 85.617,334.586 84.575,337.444 83.194 C 341.441 81.263,344.227 85.469,343.921 92.973 C 343.602 100.780,341.542 102.711,332.400 103.768 C 329.650 104.086,325.780 104.707,323.800 105.149 C 312.359 107.702,297.481 108.364,282.943 106.967 C 280.277 106.711,280.054 106.751,279.621 107.562 C 279.006 108.709,279.439 109.956,280.527 110.170 C 282.047 110.469,289.247 111.176,293.400 111.433 C 298.862 111.772,318.951 110.231,321.800 109.255 C 322.460 109.029,324.350 108.644,326.000 108.400 C 327.650 108.155,330.754 107.692,332.897 107.369 C 339.139 106.431,340.400 107.581,340.400 114.210 C 340.400 123.054,336.837 125.554,323.000 126.415 C 319.260 126.648,314.310 127.014,312.000 127.229 C 309.690 127.444,302.040 127.714,295.000 127.829 C 278.586 128.096,278.644 128.085,279.601 130.603 C 279.973 131.580,280.065 131.600,284.290 131.600 C 290.804 131.601,318.371 130.471,323.593 129.989 C 329.087 129.483,329.200 129.555,329.200 133.576 C 329.199 136.281,327.861 139.862,326.122 141.808 C 323.251 145.022,314.795 147.010,293.800 149.405 C 275.291 151.517,266.543 153.346,258.000 156.888 C 256.061 157.692,247.728 159.837,242.200 160.955 C 224.519 164.530,201.118 164.526,178.800 160.944 C 176.710 160.608,173.200 160.083,171.000 159.777 C 168.800 159.470,166.335 159.031,165.523 158.801 C 164.711 158.570,162.034 158.134,159.575 157.831 C 154.017 157.147,153.928 157.067,152.204 151.155 C 151.473 148.650,150.250 144.800,149.486 142.600 C 146.471 133.919,144.796 126.657,144.181 119.600 C 144.037 117.950,143.759 115.725,143.562 114.655 C 143.365 113.584,142.933 109.804,142.601 106.255 C 142.270 102.705,141.804 98.954,141.564 97.919 C 140.887 94.992,141.499 94.671,145.613 95.800 C 146.816 96.130,148.790 96.589,150.000 96.819 C 151.210 97.049,153.460 97.577,155.000 97.992 C 168.506 101.633,173.901 101.846,186.448 99.237 C 188.565 98.797,190.905 98.179,191.648 97.864 C 192.392 97.549,194.080 96.887,195.400 96.391 C 203.144 93.485,220.884 80.474,224.512 75.039 C 225.261 73.918,228.150 69.580,230.933 65.400 C 240.520 51.001,241.429 50.062,247.409 48.397 C 253.950 46.576,260.646 44.562,263.800 43.467 C 267.305 42.249,268.803 42.139,268.793 43.100 M88.361 61.532 C 92.116 63.388,92.726 64.532,93.642 71.446 C 94.076 74.721,94.597 78.030,94.799 78.800 C 97.187 87.896,98.503 110.177,97.222 119.806 C 96.731 123.495,97.172 125.200,98.618 125.200 C 101.857 125.200,102.100 96.012,98.977 82.000 C 98.297 78.949,97.054 69.688,97.022 67.436 C 96.961 63.093,109.215 62.668,113.063 66.879 C 115.928 70.015,117.181 81.881,117.805 111.793 C 117.961 119.226,118.216 123.978,118.477 124.293 C 119.113 125.059,120.718 124.901,121.186 124.026 C 121.993 122.519,121.524 104.701,120.167 85.243 C 119.427 74.648,119.321 74.990,123.300 75.095 C 133.430 75.360,135.777 80.189,139.000 107.400 C 140.270 118.125,141.340 125.408,142.436 130.800 C 142.992 133.534,144.621 139.159,147.010 146.600 C 149.164 153.306,150.736 159.421,151.587 164.400 C 155.398 186.693,154.523 207.622,148.392 240.800 C 147.965 243.110,147.502 246.030,147.363 247.288 C 147.042 250.196,145.859 250.946,139.600 252.214 C 138.830 252.370,135.230 253.479,131.600 254.679 C 121.123 258.141,115.205 259.194,90.436 262.005 C 88.366 262.240,86.493 262.542,86.275 262.677 C 84.855 263.555,84.819 261.209,86.179 256.413 C 86.521 255.210,86.800 253.873,86.800 253.441 C 86.800 253.010,87.145 251.474,87.567 250.028 C 91.157 237.725,91.736 232.877,90.567 224.912 C 89.981 220.921,88.353 214.114,87.192 210.800 C 84.938 204.370,75.032 189.292,68.442 182.262 C 67.068 180.797,63.184 178.082,58.400 175.246 C 52.109 171.515,41.312 163.305,39.673 161.005 C 39.163 160.289,38.514 158.646,38.230 157.352 C 37.134 152.353,35.484 146.489,33.409 140.215 C 31.557 134.617,31.546 134.628,38.019 136.004 C 48.303 138.192,47.714 137.678,48.573 145.200 C 49.451 152.885,50.041 154.248,52.029 153.184 C 52.924 152.706,53.036 150.951,52.390 147.555 C 51.959 145.288,51.064 134.181,50.364 122.400 C 49.919 114.927,50.145 107.249,50.981 101.400 C 51.323 99.013,51.386 96.856,51.169 95.000 C 50.195 86.681,51.080 73.028,52.866 68.781 C 54.685 64.458,56.499 63.200,60.916 63.200 C 69.550 63.200,71.658 67.636,72.799 88.200 C 73.007 91.940,73.392 96.170,73.656 97.600 C 74.636 102.906,74.088 117.209,72.551 126.461 C 72.238 128.340,73.459 129.247,74.969 128.257 C 77.340 126.704,78.676 106.424,77.108 95.800 C 76.751 93.380,76.354 88.970,76.226 86.000 C 75.857 77.427,74.667 70.337,72.919 66.286 C 70.879 61.558,81.684 58.232,88.361 61.532 M308.934 152.173 C 309.145 152.721,308.783 154.349,306.573 162.800 C 302.666 177.741,302.292 180.559,303.224 188.010 C 304.802 200.624,309.102 210.243,319.140 223.616 C 324.948 231.355,326.311 232.665,332.640 236.600 C 336.421 238.951,344.716 244.653,349.320 248.068 C 353.060 250.840,355.159 253.146,355.420 254.768 C 355.547 255.556,355.903 256.920,356.211 257.800 C 356.518 258.680,356.958 260.300,357.189 261.400 C 357.693 263.810,358.750 267.467,360.690 273.511 C 362.684 279.722,363.229 279.529,351.085 276.902 C 346.451 275.899,346.523 276.001,345.588 269.175 C 344.409 260.583,344.414 260.600,343.044 260.600 C 341.305 260.600,340.955 261.493,341.528 264.470 C 341.965 266.740,342.547 273.440,343.608 288.400 C 344.102 295.375,344.063 304.301,343.518 308.800 C 342.990 313.158,342.958 317.230,343.382 326.000 C 344.183 342.554,340.766 350.806,333.113 350.798 C 324.743 350.789,322.348 345.686,321.383 325.800 C 321.245 322.940,320.877 318.846,320.566 316.703 C 319.578 309.900,319.915 298.901,321.435 288.306 C 321.836 285.516,320.272 284.153,318.684 285.907 C 316.581 288.231,315.354 311.420,316.950 318.686 C 317.298 320.274,317.761 324.954,317.978 329.086 C 318.384 336.811,319.428 343.309,320.839 346.895 C 323.365 353.315,310.375 356.566,303.608 351.206 C 301.548 349.575,300.915 347.752,300.167 341.302 C 299.817 338.282,299.441 335.667,299.332 335.491 C 297.321 332.236,295.595 304.596,296.772 294.475 C 297.284 290.067,297.017 288.800,295.576 288.800 C 292.102 288.800,291.848 316.871,295.179 332.600 C 298.303 347.350,297.816 349.251,290.844 349.531 C 281.443 349.908,278.818 347.124,277.984 335.893 C 277.751 332.762,277.394 328.580,277.190 326.600 C 276.985 324.620,276.616 315.710,276.369 306.800 C 275.964 292.167,275.852 290.528,275.207 289.858 C 274.332 288.948,273.078 289.253,272.536 290.508 C 271.989 291.771,273.057 321.807,274.030 332.547 C 274.651 339.404,273.479 340.372,266.983 338.366 C 259.392 336.021,257.187 329.202,253.800 297.600 C 253.482 294.630,253.034 291.210,252.806 290.000 C 252.578 288.790,252.134 286.270,251.820 284.400 C 251.293 281.265,250.552 278.441,248.462 271.600 C 237.752 236.542,237.350 220.159,246.003 171.400 C 246.433 168.980,246.886 166.325,247.010 165.501 C 247.278 163.719,248.193 163.141,252.509 162.019 C 254.099 161.606,255.940 161.080,256.600 160.850 C 266.040 157.564,273.944 155.551,280.400 154.790 C 282.270 154.569,285.600 154.124,287.800 153.801 C 290.000 153.478,294.590 152.923,298.000 152.568 C 301.410 152.213,304.275 151.850,304.367 151.761 C 304.847 151.297,308.732 151.647,308.934 152.173 M157.580 160.789 C 157.980 161.003,159.633 161.371,161.253 161.606 C 162.874 161.841,166.180 162.386,168.600 162.816 C 198.676 168.165,222.583 168.978,238.918 165.208 C 243.105 164.241,243.486 164.668,242.619 169.357 C 240.663 179.936,240.025 183.657,239.799 185.800 C 239.660 187.120,239.386 188.830,239.191 189.600 C 238.995 190.370,238.556 193.700,238.216 197.000 C 237.875 200.300,237.423 204.260,237.211 205.800 C 235.969 214.835,236.848 238.345,238.847 249.531 C 239.164 251.307,239.173 252.187,238.877 252.483 C 238.435 252.925,232.074 252.328,229.141 251.569 C 228.338 251.361,225.638 250.922,223.141 250.593 C 220.643 250.264,218.060 249.820,217.400 249.606 C 216.740 249.392,213.770 248.933,210.800 248.587 C 207.830 248.240,204.410 247.801,203.200 247.610 C 193.484 246.079,169.172 246.295,159.293 248.000 C 156.598 248.465,153.630 248.790,152.697 248.723 C 150.618 248.572,150.552 250.132,153.337 233.600 C 157.870 206.684,158.796 186.780,156.280 170.337 C 154.738 160.251,154.862 159.335,157.580 160.789 M190.600 250.175 C 194.340 250.489,199.200 250.864,201.400 251.009 C 203.600 251.153,206.840 251.511,208.600 251.803 C 210.360 252.095,212.970 252.454,214.400 252.600 C 215.830 252.747,218.710 253.196,220.800 253.598 C 222.890 254.000,227.840 254.905,231.800 255.609 C 240.047 257.075,240.353 257.250,241.413 261.114 C 241.759 262.371,242.912 266.010,243.976 269.200 C 245.040 272.390,246.273 276.170,246.714 277.600 C 247.707 280.812,249.463 290.033,249.799 293.800 C 249.936 295.340,250.302 298.040,250.611 299.800 C 250.920 301.560,251.354 305.349,251.574 308.221 C 251.794 311.092,252.182 314.409,252.435 315.591 C 253.083 318.610,252.527 318.987,248.875 318.005 C 247.404 317.610,244.040 316.801,241.400 316.209 C 238.760 315.617,234.800 314.711,232.600 314.196 C 224.591 312.320,223.502 312.234,217.175 312.976 C 203.767 314.548,195.091 317.886,185.605 325.122 C 184.835 325.709,182.764 327.162,181.003 328.352 C 177.556 330.679,172.900 334.544,171.415 336.310 C 170.520 337.373,169.403 339.031,162.274 349.868 C 156.476 358.683,151.904 363.974,149.358 364.814 C 148.541 365.084,145.246 366.013,142.036 366.879 C 134.143 369.009,131.397 369.816,128.800 370.768 C 124.950 372.179,124.591 371.904,125.441 368.190 C 125.741 366.875,126.433 363.744,126.978 361.230 C 128.233 355.440,127.923 355.692,134.411 355.183 C 142.747 354.530,143.600 354.268,143.600 352.362 C 143.600 350.831,141.906 350.679,135.002 351.591 C 121.647 353.356,102.929 354.001,93.400 353.025 C 89.508 352.626,86.792 352.589,82.600 352.878 C 67.096 353.947,56.424 351.794,53.714 347.051 C 53.037 345.865,53.062 339.504,53.750 337.857 C 55.489 333.696,62.250 331.733,78.000 330.816 C 81.850 330.592,86.440 330.143,88.200 329.818 C 92.806 328.969,100.672 329.063,108.600 330.063 C 117.440 331.178,117.570 331.179,118.263 330.146 C 120.498 326.816,100.157 324.938,83.000 326.890 C 79.700 327.266,74.030 327.768,70.400 328.007 C 63.550 328.456,59.979 329.108,56.647 330.518 C 54.134 331.581,53.095 331.080,51.400 327.989 C 47.623 321.099,51.580 310.462,57.956 310.366 C 61.058 310.320,69.420 309.063,75.200 307.775 C 80.857 306.514,100.108 305.956,109.383 306.784 C 114.461 307.238,115.933 306.487,114.300 304.276 C 112.281 301.541,81.907 302.086,70.200 305.067 C 67.237 305.822,56.797 307.166,56.061 306.888 C 52.769 305.645,53.177 294.202,56.630 290.946 C 59.961 287.804,70.605 286.696,105.940 285.815 C 113.636 285.623,114.400 285.441,114.400 283.800 C 114.400 281.905,114.132 281.878,100.104 282.350 C 92.897 282.593,82.348 283.061,76.663 283.390 C 64.061 284.120,64.632 284.281,64.885 280.060 C 65.392 271.609,72.884 266.998,88.054 265.798 C 89.894 265.653,92.930 265.284,94.800 264.979 C 96.670 264.673,100.630 264.231,103.600 263.997 C 106.570 263.762,109.630 263.409,110.400 263.212 C 111.170 263.015,113.441 262.661,115.448 262.425 C 120.140 261.873,126.516 260.243,135.680 257.250 C 143.889 254.569,149.626 252.987,152.600 252.584 C 153.700 252.435,155.770 252.075,157.200 251.784 C 158.630 251.494,162.410 251.043,165.600 250.782 C 168.790 250.522,172.840 250.175,174.600 250.012 C 179.767 249.532,183.378 249.569,190.600 250.175 " stroke="none" fill="#605023" fill-rule="evenodd"></path><path id="path1" d="M-0.000 28.758 L -0.000 57.516 1.500 57.696 C 2.774 57.849,8.444 59.239,28.900 64.416 C 30.605 64.847,33.395 65.562,35.100 66.005 C 36.805 66.448,38.830 66.918,39.600 67.050 C 40.370 67.182,42.199 67.642,43.664 68.073 C 47.913 69.322,48.662 69.088,50.292 66.000 C 53.661 59.619,60.827 57.432,67.303 60.807 C 69.367 61.883,69.750 61.823,71.403 60.170 C 76.323 55.251,86.799 55.185,92.701 60.037 C 95.399 62.255,95.107 62.211,99.384 61.048 C 107.408 58.867,118.000 63.349,118.000 68.927 C 118.000 70.527,119.420 71.376,121.932 71.276 C 130.740 70.929,136.722 75.903,139.256 85.684 C 140.284 89.650,140.951 91.078,141.896 91.336 C 144.007 91.912,163.098 96.377,167.828 97.400 C 170.627 98.005,171.503 98.034,174.428 97.619 C 176.282 97.355,179.086 96.984,180.657 96.794 C 190.963 95.548,199.916 91.165,214.000 80.473 C 219.735 76.119,219.533 76.355,225.456 67.100 C 228.839 61.813,235.749 52.353,238.105 49.782 C 241.239 46.362,242.038 45.946,249.200 44.006 C 269.189 38.590,270.309 38.060,271.154 33.600 C 271.425 32.170,272.081 29.110,272.612 26.800 C 273.143 24.490,274.036 20.440,274.598 17.800 C 275.159 15.160,275.982 11.492,276.426 9.648 C 277.074 6.957,278.400 0.545,278.400 0.100 C 278.400 0.045,215.760 0.000,139.200 0.000 L 0.000 0.000 -0.000 28.758 M281.861 0.700 C 281.754 1.085,281.544 2.300,281.394 3.400 C 281.244 4.500,280.966 5.689,280.777 6.042 C 280.588 6.395,280.240 7.925,280.003 9.442 C 279.765 10.959,279.211 13.820,278.771 15.800 C 277.187 22.922,276.369 26.676,275.417 31.200 C 274.884 33.730,273.692 39.130,272.767 43.200 C 269.243 58.713,269.078 57.358,274.467 57.147 C 278.135 57.004,283.667 57.008,315.200 57.176 C 323.890 57.223,331.113 57.247,331.251 57.230 C 331.627 57.185,332.328 55.259,332.792 53.000 C 333.019 51.900,333.646 49.290,334.186 47.200 C 336.350 38.832,338.497 30.092,338.854 28.200 C 339.062 27.100,339.414 25.736,339.636 25.169 C 339.858 24.602,340.394 22.532,340.827 20.569 C 341.575 17.180,341.984 15.398,343.941 7.000 C 344.403 5.020,344.965 2.771,345.190 2.003 C 345.416 1.234,345.600 0.469,345.600 0.303 C 345.600 -0.438,282.065 -0.042,281.861 0.700 M347.488 7.707 C 345.001 17.714,344.528 19.598,343.600 23.200 C 343.175 24.850,342.350 28.360,341.766 31.000 C 341.182 33.640,340.365 36.944,339.952 38.342 C 339.538 39.740,339.200 41.242,339.200 41.680 C 339.200 42.118,338.854 43.674,338.432 45.138 C 335.029 56.937,335.014 58.507,338.282 60.394 C 344.770 64.140,346.386 69.680,343.330 77.701 C 342.832 79.009,342.730 79.768,343.003 80.133 C 347.058 85.548,347.526 86.768,347.569 92.029 C 347.612 97.349,346.851 99.417,343.127 104.091 L 342.258 105.181 343.127 109.691 C 345.077 119.807,342.322 125.517,333.937 128.740 C 332.895 129.141,332.872 129.230,332.737 133.286 C 332.450 141.945,328.097 146.665,317.864 149.412 C 312.995 150.719,312.858 150.908,311.131 158.700 C 310.729 160.515,310.071 163.485,309.668 165.300 C 309.265 167.115,308.738 169.230,308.496 170.000 C 308.254 170.770,307.937 172.210,307.792 173.200 C 307.647 174.190,307.275 175.771,306.964 176.714 C 305.528 181.077,307.725 196.257,310.913 204.000 C 314.098 211.735,326.557 228.627,331.317 231.666 C 354.742 246.616,357.716 249.311,359.715 257.400 C 361.758 265.667,365.727 277.945,366.795 279.303 C 367.596 280.321,374.645 282.151,384.200 283.822 C 386.731 284.264,396.159 286.307,398.900 287.006 L 400.000 287.287 400.000 143.643 L 400.000 0.000 374.700 0.007 L 349.400 0.013 347.488 7.707 M263.800 43.467 C 260.646 44.562,253.950 46.576,247.409 48.397 C 241.429 50.062,240.520 51.001,230.933 65.400 C 228.150 69.580,225.261 73.918,224.512 75.039 C 220.884 80.474,203.144 93.485,195.400 96.391 C 194.080 96.887,192.392 97.549,191.648 97.864 C 190.905 98.179,188.565 98.797,186.448 99.237 C 173.901 101.846,168.506 101.633,155.000 97.992 C 153.460 97.577,151.210 97.049,150.000 96.819 C 148.790 96.589,146.816 96.130,145.613 95.800 C 141.499 94.671,140.887 94.992,141.564 97.919 C 141.804 98.954,142.270 102.705,142.601 106.255 C 142.933 109.804,143.365 113.584,143.562 114.655 C 143.759 115.725,144.037 117.950,144.181 119.600 C 144.796 126.657,146.471 133.919,149.486 142.600 C 150.250 144.800,151.473 148.650,152.204 151.155 C 153.928 157.067,154.017 157.147,159.575 157.831 C 162.034 158.134,164.711 158.570,165.523 158.801 C 166.335 159.031,168.800 159.470,171.000 159.777 C 173.200 160.083,176.710 160.608,178.800 160.944 C 201.118 164.526,224.519 164.530,242.200 160.955 C 247.728 159.837,256.061 157.692,258.000 156.888 C 266.543 153.346,275.291 151.517,293.800 149.405 C 314.795 147.010,323.251 145.022,326.122 141.808 C 327.861 139.862,329.199 136.281,329.200 133.576 C 329.200 129.555,329.087 129.483,323.593 129.989 C 318.371 130.471,290.804 131.601,284.290 131.600 C 280.065 131.600,279.973 131.580,279.601 130.603 C 278.644 128.085,278.586 128.096,295.000 127.829 C 302.040 127.714,309.690 127.444,312.000 127.229 C 314.310 127.014,319.260 126.648,323.000 126.415 C 336.837 125.554,340.400 123.054,340.400 114.210 C 340.400 107.581,339.139 106.431,332.897 107.369 C 330.754 107.692,327.650 108.155,326.000 108.400 C 324.350 108.644,322.460 109.029,321.800 109.255 C 318.951 110.231,298.862 111.772,293.400 111.433 C 289.247 111.176,282.047 110.469,280.527 110.170 C 279.439 109.956,279.006 108.709,279.621 107.562 C 280.054 106.751,280.277 106.711,282.943 106.967 C 297.481 108.364,312.359 107.702,323.800 105.149 C 325.780 104.707,329.650 104.086,332.400 103.768 C 341.542 102.711,343.602 100.780,343.921 92.973 C 344.227 85.469,341.441 81.263,337.444 83.194 C 334.586 84.575,328.264 85.617,320.258 86.026 C 316.110 86.237,311.160 86.683,309.258 87.016 C 300.574 88.538,278.260 87.388,275.900 85.296 C 273.910 83.532,275.928 82.121,279.275 82.935 C 285.010 84.331,296.892 84.628,308.031 83.655 C 324.770 82.193,327.291 81.957,329.800 81.612 C 338.799 80.376,341.834 77.046,341.006 69.317 C 340.339 63.086,332.424 60.413,316.400 61.005 C 304.839 61.432,304.182 61.425,299.400 60.836 C 294.583 60.242,278.263 60.449,271.200 61.193 C 269.110 61.414,264.415 61.854,260.766 62.173 C 257.118 62.491,253.686 62.864,253.141 63.000 C 251.776 63.343,250.198 62.068,250.562 60.918 C 250.950 59.697,252.324 59.319,259.137 58.556 C 265.460 57.849,266.400 57.509,266.400 55.929 C 266.400 55.482,266.672 54.065,267.005 52.782 C 267.672 50.208,268.781 44.200,268.793 43.100 C 268.803 42.139,267.305 42.249,263.800 43.467 M79.332 60.411 C 74.775 61.059,71.828 63.758,72.919 66.286 C 74.667 70.337,75.857 77.427,76.226 86.000 C 76.354 88.970,76.751 93.380,77.108 95.800 C 78.676 106.424,77.340 126.704,74.969 128.257 C 73.459 129.247,72.238 128.340,72.551 126.461 C 74.088 117.209,74.636 102.906,73.656 97.600 C 73.392 96.170,73.007 91.940,72.799 88.200 C 71.658 67.636,69.550 63.200,60.916 63.200 C 56.499 63.200,54.685 64.458,52.866 68.781 C 51.080 73.028,50.195 86.681,51.169 95.000 C 51.386 96.856,51.323 99.013,50.981 101.400 C 50.145 107.249,49.919 114.927,50.364 122.400 C 51.064 134.181,51.959 145.288,52.390 147.555 C 53.036 150.951,52.924 152.706,52.029 153.184 C 50.041 154.248,49.451 152.885,48.573 145.200 C 47.714 137.678,48.303 138.192,38.019 136.004 C 31.546 134.628,31.557 134.617,33.409 140.215 C 35.484 146.489,37.134 152.353,38.230 157.352 C 38.514 158.646,39.163 160.289,39.673 161.005 C 41.312 163.305,52.109 171.515,58.400 175.246 C 63.184 178.082,67.068 180.797,68.442 182.262 C 73.273 187.415,81.527 199.180,84.676 205.400 C 89.943 215.804,92.416 230.045,90.441 238.600 C 89.196 243.991,88.368 247.282,87.567 250.028 C 87.145 251.474,86.800 253.010,86.800 253.441 C 86.800 253.873,86.521 255.210,86.179 256.413 C 84.819 261.209,84.855 263.555,86.275 262.677 C 86.493 262.542,88.366 262.240,90.436 262.005 C 115.205 259.194,121.123 258.141,131.600 254.679 C 135.230 253.479,138.830 252.370,139.600 252.214 C 145.859 250.946,147.042 250.196,147.363 247.288 C 147.502 246.030,147.965 243.110,148.392 240.800 C 154.523 207.622,155.398 186.693,151.587 164.400 C 150.736 159.421,149.164 153.306,147.010 146.600 C 144.621 139.159,142.992 133.534,142.436 130.800 C 141.340 125.408,140.270 118.125,139.000 107.400 C 135.777 80.189,133.430 75.360,123.300 75.095 C 119.321 74.990,119.427 74.648,120.167 85.243 C 121.524 104.701,121.993 122.519,121.186 124.026 C 120.718 124.901,119.113 125.059,118.477 124.293 C 118.216 123.978,117.961 119.226,117.805 111.793 C 117.181 81.881,115.928 70.015,113.063 66.879 C 109.215 62.668,96.961 63.093,97.022 67.436 C 97.054 69.688,98.297 78.949,98.977 82.000 C 102.100 96.012,101.857 125.200,98.618 125.200 C 97.172 125.200,96.731 123.495,97.222 119.806 C 98.503 110.177,97.187 87.896,94.799 78.800 C 94.597 78.030,94.076 74.721,93.642 71.446 C 92.410 62.154,88.467 59.113,79.332 60.411 M0.000 92.706 L 0.000 124.298 1.700 124.553 C 4.081 124.910,10.452 126.308,13.892 127.227 C 15.482 127.652,17.198 128.000,17.704 128.000 C 18.211 128.000,19.610 128.265,20.813 128.588 C 22.016 128.912,25.790 129.731,29.200 130.410 C 32.610 131.088,37.380 132.089,39.800 132.633 C 42.220 133.177,44.576 133.704,45.035 133.803 C 47.212 134.272,47.288 133.830,46.816 123.373 C 46.407 114.312,46.763 101.431,47.452 100.316 C 47.584 100.102,47.472 96.387,47.204 92.059 C 46.829 86.031,46.823 83.000,47.175 79.102 C 47.499 75.519,47.511 73.780,47.214 73.226 C 46.657 72.186,42.996 71.167,27.200 67.659 C 25.330 67.244,22.939 66.611,21.886 66.252 C 20.833 65.893,19.561 65.600,19.059 65.600 C 18.556 65.600,17.168 65.307,15.973 64.948 C 13.845 64.310,13.130 64.136,5.800 62.482 C 3.820 62.035,1.705 61.544,1.100 61.391 L 0.000 61.113 0.000 92.706 M-0.000 263.962 L 0.000 400.000 23.972 400.000 L 47.943 400.000 48.535 397.900 C 48.860 396.745,50.044 392.020,51.166 387.400 C 52.288 382.780,53.466 378.100,53.784 377.000 C 54.102 375.900,54.662 373.650,55.028 372.000 C 55.394 370.350,56.013 367.560,56.405 365.800 C 56.796 364.040,57.496 361.131,57.959 359.336 C 58.970 355.421,58.861 355.047,56.336 353.767 C 50.094 350.605,47.483 343.347,50.321 337.049 C 51.473 334.492,51.436 334.002,49.946 332.155 C 44.854 325.843,45.292 315.045,50.839 310.103 C 52.182 308.906,52.185 308.808,50.997 304.600 C 48.497 295.747,51.938 288.264,60.011 285.000 C 60.946 284.622,61.013 284.380,61.247 280.532 C 61.542 275.675,62.907 272.260,65.593 269.654 C 68.476 266.855,70.453 265.962,78.165 263.971 C 81.303 263.161,81.493 262.709,84.042 250.000 C 84.285 248.790,84.813 246.720,85.216 245.400 C 85.620 244.080,86.077 242.100,86.232 241.000 C 86.387 239.900,86.758 238.302,87.057 237.450 C 88.732 232.667,86.070 215.889,82.422 208.246 C 81.379 206.061,79.496 203.122,72.781 193.200 C 68.907 187.476,65.970 184.358,62.003 181.759 C 59.911 180.389,56.891 178.353,55.292 177.234 C 53.693 176.115,52.291 175.200,52.178 175.200 C 51.777 175.200,43.768 169.474,41.619 167.651 C 36.463 163.276,36.060 162.571,33.586 153.600 C 28.102 133.715,27.814 133.236,20.600 132.023 C 18.323 131.641,11.969 130.300,6.499 129.047 C 5.123 128.732,3.098 128.351,1.999 128.200 L -0.000 127.925 -0.000 263.962 M304.367 151.761 C 304.275 151.850,301.410 152.213,298.000 152.568 C 294.590 152.923,290.000 153.478,287.800 153.801 C 285.600 154.124,282.270 154.569,280.400 154.790 C 273.944 155.551,266.040 157.564,256.600 160.850 C 255.940 161.080,254.099 161.606,252.509 162.019 C 248.193 163.141,247.278 163.719,247.010 165.501 C 246.886 166.325,246.433 168.980,246.003 171.400 C 240.576 201.979,239.426 214.248,240.361 231.575 C 241.075 244.807,242.642 252.550,248.462 271.600 C 250.552 278.441,251.293 281.265,251.820 284.400 C 252.134 286.270,252.578 288.790,252.806 290.000 C 253.034 291.210,253.482 294.630,253.800 297.600 C 257.187 329.202,259.392 336.021,266.983 338.366 C 273.479 340.372,274.651 339.404,274.030 332.547 C 273.057 321.807,271.989 291.771,272.536 290.508 C 273.078 289.253,274.332 288.948,275.207 289.858 C 275.852 290.528,275.964 292.167,276.369 306.800 C 276.616 315.710,276.985 324.620,277.190 326.600 C 277.394 328.580,277.751 332.762,277.984 335.893 C 278.818 347.124,281.443 349.908,290.844 349.531 C 297.816 349.251,298.303 347.350,295.179 332.600 C 291.848 316.871,292.102 288.800,295.576 288.800 C 297.017 288.800,297.284 290.067,296.772 294.475 C 295.595 304.596,297.321 332.236,299.332 335.491 C 299.441 335.667,299.817 338.282,300.167 341.302 C 300.915 347.752,301.548 349.575,303.608 351.206 C 310.375 356.566,323.365 353.315,320.839 346.895 C 319.428 343.309,318.384 336.811,317.978 329.086 C 317.761 324.954,317.298 320.274,316.950 318.686 C 315.354 311.420,316.581 288.231,318.684 285.907 C 320.272 284.153,321.836 285.516,321.435 288.306 C 319.915 298.901,319.578 309.900,320.566 316.703 C 320.877 318.846,321.245 322.940,321.383 325.800 C 322.348 345.686,324.743 350.789,333.113 350.798 C 340.766 350.806,344.183 342.554,343.382 326.000 C 342.958 317.230,342.990 313.158,343.518 308.800 C 344.063 304.301,344.102 295.375,343.608 288.400 C 342.547 273.440,341.965 266.740,341.528 264.470 C 340.955 261.493,341.305 260.600,343.044 260.600 C 344.414 260.600,344.409 260.583,345.588 269.175 C 346.523 276.001,346.451 275.899,351.085 276.902 C 363.229 279.529,362.684 279.722,360.690 273.511 C 358.750 267.467,357.693 263.810,357.189 261.400 C 356.958 260.300,356.518 258.680,356.211 257.800 C 355.903 256.920,355.547 255.556,355.420 254.768 C 355.159 253.146,353.060 250.840,349.320 248.068 C 344.716 244.653,336.421 238.951,332.640 236.600 C 326.311 232.665,324.948 231.355,319.140 223.616 C 309.102 210.243,304.802 200.624,303.224 188.010 C 302.292 180.559,302.666 177.741,306.573 162.800 C 309.667 150.970,309.664 151.600,306.624 151.600 C 305.474 151.600,304.458 151.673,304.367 151.761 M155.467 160.667 C 155.005 161.128,155.168 163.067,156.280 170.337 C 158.796 186.780,157.870 206.684,153.337 233.600 C 150.552 250.132,150.618 248.572,152.697 248.723 C 153.630 248.790,156.598 248.465,159.293 248.000 C 169.172 246.295,193.484 246.079,203.200 247.610 C 204.410 247.801,207.830 248.240,210.800 248.587 C 213.770 248.933,216.740 249.392,217.400 249.606 C 218.060 249.820,220.643 250.264,223.141 250.593 C 225.638 250.922,228.338 251.361,229.141 251.569 C 232.074 252.328,238.435 252.925,238.877 252.483 C 239.173 252.187,239.164 251.307,238.847 249.531 C 236.848 238.345,235.969 214.835,237.211 205.800 C 237.423 204.260,237.875 200.300,238.216 197.000 C 238.556 193.700,238.995 190.370,239.191 189.600 C 239.386 188.830,239.660 187.120,239.799 185.800 C 240.025 183.657,240.663 179.936,242.619 169.357 C 243.486 164.668,243.105 164.241,238.918 165.208 C 222.583 168.978,198.676 168.165,168.600 162.816 C 166.180 162.386,162.874 161.841,161.253 161.606 C 159.633 161.371,157.980 161.003,157.580 160.789 C 156.735 160.337,155.848 160.286,155.467 160.667 M174.600 250.012 C 172.840 250.175,168.790 250.522,165.600 250.782 C 162.410 251.043,158.630 251.494,157.200 251.784 C 155.770 252.075,153.700 252.435,152.600 252.584 C 149.626 252.987,143.889 254.569,135.680 257.250 C 126.516 260.243,120.140 261.873,115.448 262.425 C 113.441 262.661,111.170 263.015,110.400 263.212 C 109.630 263.409,106.570 263.762,103.600 263.997 C 100.630 264.231,96.670 264.673,94.800 264.979 C 92.930 265.284,89.894 265.653,88.054 265.798 C 72.884 266.998,65.392 271.609,64.885 280.060 C 64.632 284.281,64.061 284.120,76.663 283.390 C 82.348 283.061,92.897 282.593,100.104 282.350 C 114.132 281.878,114.400 281.905,114.400 283.800 C 114.400 285.441,113.636 285.623,105.940 285.815 C 70.605 286.696,59.961 287.804,56.630 290.946 C 53.177 294.202,52.769 305.645,56.061 306.888 C 56.797 307.166,67.237 305.822,70.200 305.067 C 81.907 302.086,112.281 301.541,114.300 304.276 C 115.933 306.487,114.461 307.238,109.383 306.784 C 100.108 305.956,80.857 306.514,75.200 307.775 C 69.420 309.063,61.058 310.320,57.956 310.366 C 51.580 310.462,47.623 321.099,51.400 327.989 C 53.095 331.080,54.134 331.581,56.647 330.518 C 59.979 329.108,63.550 328.456,70.400 328.007 C 74.030 327.768,79.700 327.266,83.000 326.890 C 100.157 324.938,120.498 326.816,118.263 330.146 C 117.570 331.179,117.440 331.178,108.600 330.063 C 100.672 329.063,92.806 328.969,88.200 329.818 C 86.440 330.143,81.850 330.592,78.000 330.816 C 62.250 331.733,55.489 333.696,53.750 337.857 C 53.062 339.504,53.037 345.865,53.714 347.051 C 56.424 351.794,67.096 353.947,82.600 352.878 C 86.792 352.589,89.508 352.626,93.400 353.025 C 102.929 354.001,121.647 353.356,135.002 351.591 C 141.906 350.679,143.600 350.831,143.600 352.362 C 143.600 354.268,142.747 354.530,134.411 355.183 C 127.923 355.692,128.233 355.440,126.978 361.230 C 126.433 363.744,125.741 366.875,125.441 368.190 C 124.591 371.904,124.950 372.179,128.800 370.768 C 131.397 369.816,134.143 369.009,142.036 366.879 C 145.246 366.013,148.541 365.084,149.358 364.814 C 151.904 363.974,156.476 358.683,162.274 349.868 C 169.403 339.031,170.520 337.373,171.415 336.310 C 172.900 334.544,177.556 330.679,181.003 328.352 C 182.764 327.162,184.835 325.709,185.605 325.122 C 195.091 317.886,203.767 314.548,217.175 312.976 C 223.502 312.234,224.591 312.320,232.600 314.196 C 234.800 314.711,238.760 315.617,241.400 316.209 C 244.040 316.801,247.404 317.610,248.875 318.005 C 252.527 318.987,253.083 318.610,252.435 315.591 C 252.182 314.409,251.794 311.092,251.574 308.221 C 251.354 305.349,250.920 301.560,250.611 299.800 C 250.302 298.040,249.936 295.340,249.799 293.800 C 249.463 290.033,247.707 280.812,246.714 277.600 C 246.273 276.170,245.040 272.390,243.976 269.200 C 242.912 266.010,241.759 262.371,241.413 261.114 C 240.353 257.250,240.047 257.075,231.800 255.609 C 227.840 254.905,222.890 254.000,220.800 253.598 C 218.710 253.196,215.830 252.747,214.400 252.600 C 212.970 252.454,210.360 252.095,208.600 251.803 C 206.840 251.511,203.600 251.153,201.400 251.009 C 199.200 250.864,194.340 250.489,190.600 250.175 C 183.378 249.569,179.767 249.532,174.600 250.012 M347.348 280.188 C 346.754 280.623,346.741 281.325,347.206 288.126 C 347.756 296.181,347.555 308.044,346.795 312.400 C 346.453 314.356,346.459 316.733,346.818 321.997 C 347.269 328.609,347.146 333.903,346.439 338.379 C 346.267 339.467,346.233 340.519,346.363 340.716 C 346.613 341.095,351.226 342.544,353.600 342.989 C 355.627 343.369,370.295 346.929,381.200 349.687 C 386.370 350.995,391.770 352.323,393.200 352.639 C 394.630 352.954,396.479 353.480,397.308 353.806 C 400.249 354.964,400.000 357.844,400.000 322.635 L 400.000 290.870 398.300 290.595 C 397.365 290.443,393.450 289.611,389.600 288.745 C 385.750 287.880,380.890 286.809,378.800 286.366 C 376.710 285.923,374.280 285.369,373.400 285.135 C 371.867 284.727,359.654 282.124,353.800 280.958 C 352.260 280.651,350.325 280.245,349.500 280.055 C 348.473 279.820,347.795 279.862,347.348 280.188 M219.000 316.286 C 211.366 317.010,202.525 319.335,197.043 322.060 C 189.220 325.949,174.238 337.274,172.516 340.600 C 171.555 342.456,164.434 353.153,162.620 355.465 C 161.729 356.601,160.105 358.824,159.010 360.405 C 154.777 366.522,152.887 367.689,143.200 370.167 C 132.406 372.927,126.025 375.061,124.621 376.381 C 123.595 377.344,123.241 378.523,121.003 388.400 C 120.230 391.810,119.328 395.632,118.999 396.894 C 118.670 398.156,118.400 399.371,118.400 399.594 C 118.400 399.868,164.204 400.000,259.200 400.000 L 400.000 400.000 400.000 379.049 L 400.000 358.097 398.900 357.653 C 398.295 357.409,396.540 356.936,395.000 356.602 C 393.460 356.268,391.216 355.726,390.013 355.397 C 388.810 355.069,387.501 354.800,387.104 354.800 C 386.708 354.800,385.082 354.452,383.492 354.027 C 378.989 352.822,374.846 351.792,366.400 349.776 C 362.110 348.753,356.890 347.464,354.800 346.913 C 345.543 344.473,345.687 344.463,343.840 347.725 C 340.255 354.059,333.391 356.355,327.225 353.284 C 324.943 352.148,324.364 352.171,322.979 353.455 C 317.552 358.484,306.168 358.329,300.509 353.148 C 298.533 351.339,298.648 351.358,296.219 352.433 C 293.534 353.621,285.696 353.634,283.032 352.455 C 279.467 350.879,276.759 347.900,275.614 344.297 C 275.017 342.419,274.288 342.021,271.936 342.286 C 269.469 342.564,264.926 341.744,263.566 340.776 C 262.967 340.349,262.305 340.000,262.096 340.000 C 260.103 340.000,255.658 332.673,254.574 327.600 C 253.753 323.755,252.495 322.000,250.560 322.000 C 249.954 322.000,245.755 321.088,241.229 319.974 C 225.444 316.089,223.858 315.825,219.000 316.286 M62.652 356.871 C 62.084 357.743,60.421 363.794,58.785 370.937 C 58.390 372.663,57.885 374.553,57.663 375.137 C 57.442 375.722,57.153 376.920,57.022 377.800 C 56.890 378.680,56.434 380.750,56.008 382.400 C 55.582 384.050,54.765 387.380,54.193 389.800 C 53.299 393.578,52.618 396.223,51.745 399.300 C 51.557 399.962,53.241 400.000,83.130 400.000 C 112.841 400.000,114.730 399.958,114.984 399.300 C 115.262 398.578,116.284 393.835,117.590 387.200 C 118.001 385.110,118.818 381.240,119.406 378.600 C 119.993 375.960,120.786 372.360,121.169 370.600 C 121.551 368.840,122.372 365.103,122.993 362.295 C 123.614 359.487,124.002 357.069,123.855 356.922 C 123.708 356.774,116.165 356.601,107.094 356.536 C 98.022 356.471,89.430 356.385,88.000 356.345 C 86.570 356.306,81.620 356.343,77.000 356.428 C 72.380 356.512,67.398 356.438,65.928 356.262 C 63.401 355.960,63.224 355.993,62.652 356.871 " stroke="none" fill="#fbe344" fill-rule="evenodd"></path></g></svg>